<?xml version="1.0" encoding="UTF-8"?>
<svg width="15px" height="16px" viewBox="0 0 15 16" version="1.1" xmlns="http://www.w3.org/2000/svg" xmlns:xlink="http://www.w3.org/1999/xlink">
    <title>arrow copy</title>
    <g id="search.yakunin.design" stroke="none" stroke-width="1" fill="none" fill-rule="evenodd">
        <g id="active" transform="translate(-1347.000000, -353.000000)" fill="#FFFFFF">
            <g id="arrow-copy" transform="translate(1347.085417, 353.575394)">
                <g id="Group" transform="translate(7.414530, 7.414530) rotate(45.000000) translate(-7.414530, -7.414530) translate(2.171665, 2.171665)">
                    <path d="M-0.757564436,5.94991467 L11.2432928,5.94991467 C11.6333206,5.94991467 11.9503433,5.63289203 11.9503433,5.24286417 C11.9503433,4.85283631 11.6333206,4.53581366 11.2432928,4.53581366 L-0.757564436,4.53581366 C-1.1475923,4.53581366 -1.46461494,4.85283631 -1.46461494,5.24286417 C-1.46461494,5.63289203 -1.1475923,5.94991467 -0.757564436,5.94991467 Z" id="Path" transform="translate(5.242864, 5.242864) rotate(-45.000000) translate(-5.242864, -5.242864) "></path>
                </g>
                <g id="Group" transform="translate(3.414244, 1.914137)">
                    <path d="M2.31818507,3.02534236 L7.97544341,3.02534236 C7.97544341,3.02534236 7.97544341,8.6826007 7.97544341,8.6826007 C7.97544341,9.07295153 8.29224988,9.38975799 8.6826007,9.38975799 C9.07295153,9.38975799 9.38975799,9.07295153 9.38975799,8.6826007 L9.38975799,2.31818507 C9.38975799,1.92783424 9.07295153,1.61102778 8.6826007,1.61102778 L2.31818507,1.61102778 C1.92783424,1.61102778 1.61102778,1.92783424 1.61102778,2.31818507 C1.61102778,2.70853589 1.92783424,3.02534236 2.31818507,3.02534236 Z" id="Path" transform="translate(5.500393, 5.500393) rotate(45.000000) translate(-5.500393, -5.500393) "></path>
                </g>
            </g>
        </g>
    </g>
</svg>