<?xml version="1.0" encoding="UTF-8" standalone="no"?>
<!DOCTYPE svg PUBLIC "-//W3C//DTD SVG 1.1//EN" "http://www.w3.org/Graphics/SVG/1.1/DTD/svg11.dtd">
<svg width="100%" height="100%" viewBox="0 0 862 824" version="1.1" xmlns="http://www.w3.org/2000/svg" xmlns:xlink="http://www.w3.org/1999/xlink" xml:space="preserve" xmlns:serif="http://www.serif.com/" style="fill-rule:evenodd;clip-rule:evenodd;stroke-linecap:round;stroke-linejoin:round;">
    <g transform="matrix(1,0,0,1,-0.121451,-0.579)">
        <g transform="matrix(1,0,0,1,-0.121451,-0.579)">
            <g transform="matrix(1,0,0,1,-758.193,-64.7107)">
                <g transform="matrix(1,0,0,1,643.964,20.4977)">
                    <path d="M373.57,582.685C373.581,582.128 373.479,581.575 373.27,581.059C373.062,580.543 372.752,580.074 372.358,579.681C371.965,579.287 371.496,578.977 370.98,578.769C370.463,578.561 369.91,578.459 369.354,578.469L135.691,578.469C135.134,578.459 134.581,578.561 134.065,578.769C133.549,578.977 133.08,579.287 132.686,579.681C132.292,580.074 131.982,580.543 131.774,581.059C131.566,581.575 131.464,582.128 131.474,582.685L131.474,787.617C131.464,788.173 131.566,788.726 131.774,789.242C131.982,789.758 132.292,790.227 132.686,790.62C133.08,791.014 133.549,791.324 134.065,791.532C134.581,791.74 135.134,791.842 135.691,791.832L369.354,791.832C369.91,791.842 370.463,791.74 370.98,791.532C371.496,791.324 371.965,791.014 372.358,790.62C372.752,790.227 373.062,789.758 373.27,789.242C373.479,788.726 373.581,788.173 373.57,787.617L373.57,582.685Z" style="fill:rgb(192,209,244);stroke:rgb(168,191,250);stroke-width:0.87px;"/>
                </g>
                <g transform="matrix(1,0,0,1,643.964,20.4977)">
                    <path d="M340.452,601.078L340.452,611.654L179.464,611.654L179.464,605.6L340.452,605.6L340.452,601.078Z" style="fill:white;"/>
                </g>
                <g transform="matrix(1,0,0,1,643.964,20.4977)">
                    <path d="M351.031,654.955L154.242,654.955L154.242,659.477L350.801,659.477L350.801,654.955L351.031,654.955Z" style="fill:white;"/>
                </g>
                <g transform="matrix(1,0,0,1,643.964,20.4977)">
                    <path d="M320.29,615.639C320.028,619.16 320.028,622.695 320.29,626.215L199.242,626.215L199.242,620.161L320.29,620.161L320.29,615.639Z" style="fill:white;"/>
                </g>
                <g transform="matrix(1,0,0,1,643.964,20.4977)">
                    <path d="M524.44,276.973C664.581,276.973 778.188,225.127 778.188,161.172C778.188,97.217 664.581,45.371 524.44,45.371C384.298,45.371 270.691,97.217 270.691,161.172C270.691,225.127 384.298,276.973 524.44,276.973Z" style="fill:rgb(224,229,248);fill-rule:nonzero;"/>
                </g>
                <g transform="matrix(1,0,0,1,643.964,20.4977)">
                    <path d="M224.617,78.632C232.283,77.865 236.806,83.153 241.023,86.296C247.976,92.503 254.27,99.412 259.805,106.911L364.754,249.69C364.754,249.69 336.389,506.583 285.333,472.402C253.825,451.173 196.866,367.254 181.764,301.881C172.488,261.645 178.85,222.176 180.69,196.732C182.817,168.707 189.336,141.19 200.009,115.188C204.17,104.424 209.491,94.145 215.878,84.533C218.14,81.742 221.182,79.687 224.617,78.632Z" style="fill:rgb(200,215,246);"/>
                </g>
                <g transform="matrix(1,0,0,1,643.964,20.4977)">
                    <path d="M125.188,249.766C131.781,247.16 137.07,251.376 141.823,252.985C149.981,257.315 157.686,262.45 164.822,268.313L299.439,380.052C299.439,380.052 351.568,629.741 296.525,608.819C262.565,595.867 187.36,529.115 154.779,470.869C134.694,434.849 128.331,395.916 122.505,371.239C116.027,344.57 113.445,317.104 114.838,289.695C115.266,278.6 116.859,267.58 119.591,256.817C121.201,252.985 123.041,250.533 125.188,249.766Z" style="fill:rgb(149,181,242);"/>
                </g>
                <g transform="matrix(1,0,0,1,560.351,13.3981)">
                    <path d="M980.299,76.868C975.027,76.258 969.702,76.258 964.43,76.868L961.747,89.59C956.775,90.449 951.897,91.783 947.181,93.576L938.595,83.842C933.851,85.985 929.31,88.55 925.026,91.506L929.012,103.692C925.016,106.831 921.457,110.491 918.433,114.575L906.167,110.666C903.256,115.004 900.693,119.565 898.501,124.308L908.084,132.815C906.114,137.603 904.774,142.626 904.098,147.759L891.525,150.442C890.915,155.712 890.915,161.035 891.525,166.306L904.098,168.988C904.774,174.121 906.114,179.144 908.084,183.933L898.271,192.593C900.463,197.335 903.026,201.897 905.937,206.235L918.203,202.326C921.41,206.274 924.95,209.941 928.782,213.286L924.796,225.394C929.063,228.378 933.607,230.945 938.365,233.058L946.951,223.325C951.667,225.118 956.545,226.452 961.517,227.31L964.2,240.109C969.472,240.719 974.797,240.719 980.069,240.109L982.675,227.31C987.647,226.452 992.525,225.118 997.241,223.325L1005.83,233.058C1010.59,230.945 1015.13,228.378 1019.4,225.394L1015.41,213.286C1019.39,210.1 1022.95,206.416 1025.99,202.326L1038.25,206.235C1041.19,201.913 1043.76,197.35 1045.92,192.593L1036.34,184.086C1038.31,179.298 1039.65,174.274 1040.32,169.141L1052.9,166.459C1053.51,161.189 1053.51,155.865 1052.9,150.595L1040.32,147.913C1039.65,142.78 1038.31,137.756 1036.34,132.968L1045.92,124.461C1043.76,119.704 1041.19,115.14 1038.25,110.819L1025.99,114.728C1022.8,110.787 1019.26,107.144 1015.41,103.845L1019.4,91.659C1015.11,88.703 1010.57,86.138 1005.83,83.996L997.241,93.729C992.525,91.937 987.647,90.602 982.675,89.744L980.299,76.868ZM972.633,141.858C975.905,141.797 979.121,142.712 981.872,144.485C984.622,146.258 986.782,148.809 988.077,151.814C989.372,154.819 989.742,158.142 989.141,161.358C988.54,164.574 986.995,167.539 984.703,169.874C982.411,172.209 979.475,173.809 976.269,174.47C973.064,175.131 969.734,174.823 966.705,173.585C963.675,172.348 961.083,170.237 959.258,167.521C957.433,164.805 956.458,161.607 956.457,158.335C956.415,154.058 958.055,149.935 961.022,146.854C963.99,143.772 968.049,141.978 972.326,141.858L972.633,141.858Z" style="fill:rgb(200,215,246);"/>
                </g>
                <g transform="matrix(1,0,0,1,643.964,20.4977)">
                    <path d="M602.404,109.747C598.174,109.287 593.907,109.287 589.678,109.747L587.608,120.016C583.627,120.665 579.723,121.718 575.956,123.159L569.056,115.495C565.23,117.258 561.584,119.388 558.17,121.856L561.39,131.589C558.178,134.111 555.316,137.049 552.881,140.326L543.068,137.183C540.634,140.646 538.505,144.313 536.705,148.143L544.371,154.964C542.833,158.804 541.778,162.82 541.228,166.919L531.186,169.065C530.649,173.263 530.649,177.512 531.186,181.711L541.228,183.933C541.778,188.033 542.833,192.049 544.371,195.889L536.705,202.71C538.539,206.522 540.666,210.186 543.068,213.669L552.881,210.45C555.438,213.645 558.287,216.596 561.39,219.264L558.17,228.997C561.604,231.412 565.247,233.516 569.056,235.281L575.956,227.617C579.556,229.044 583.276,230.146 587.072,230.913L589.141,241.106C593.366,241.642 597.642,241.642 601.867,241.106L604.014,230.913C607.984,230.218 611.884,229.166 615.666,227.771L622.566,235.434C626.341,233.651 629.957,231.549 633.375,229.15L630.232,219.417C633.422,216.866 636.257,213.903 638.664,210.604L648.477,213.822C650.879,210.339 653.006,206.675 654.84,202.863L647.174,196.042C648.747,192.214 649.804,188.193 650.317,184.087L660.436,181.864C660.973,177.666 660.973,173.417 660.436,169.219L650.317,167.073C649.804,162.966 648.747,158.945 647.174,155.117L654.84,148.296C653.04,144.466 650.911,140.799 648.477,137.337L638.664,140.479C636.113,137.328 633.291,134.404 630.232,131.742L633.375,122.009C629.977,119.559 626.358,117.429 622.566,115.648L615.666,123.312C611.896,121.881 607.992,120.829 604.014,120.17L602.404,109.747ZM596.041,161.861C598.658,161.815 601.23,162.55 603.428,163.97C605.627,165.39 607.352,167.433 608.386,169.837C609.419,172.242 609.713,174.899 609.231,177.471C608.748,180.043 607.511,182.413 605.676,184.28C603.842,186.146 601.493,187.425 598.929,187.952C596.365,188.48 593.702,188.232 591.279,187.242C588.857,186.251 586.784,184.562 585.324,182.39C583.865,180.218 583.085,177.66 583.085,175.043C583.063,171.653 584.364,168.387 586.711,165.94C589.059,163.493 592.268,162.057 595.658,161.938L596.041,161.861Z" style="fill:rgb(200,215,246);"/>
                </g>
                <g transform="matrix(1.73879,0,0,2.55682,494.299,-932.076)">
                    <path d="M647.209,434.737L271.141,434.737C264.303,434.737 258.76,438.507 258.76,443.157L258.76,672.23C258.76,673.371 259.426,674.465 260.612,675.272C261.799,676.079 263.408,676.532 265.086,676.532C315.28,676.532 647.209,676.532 647.209,676.532L647.209,434.737Z" style="fill:rgb(16,31,130);"/>
                </g>
                <g transform="matrix(1.89657,0,0,0.195701,392.181,712.613)">
                    <path d="M647.209,434.737L264.559,434.737C263.021,434.737 261.546,440.659 260.458,451.2C259.371,461.741 258.76,476.038 258.76,490.945C258.76,529.849 258.76,581.42 258.76,620.324C258.76,635.231 259.371,649.528 260.458,660.069C261.546,670.61 263.021,676.532 264.559,676.532C312.908,676.532 647.209,676.532 647.209,676.532L647.209,434.737Z" style="fill:rgb(16,31,130);"/>
                </g>
                <g transform="matrix(1.69104,0,0,2.4025,525.203,-846.38)">
                    <path d="M647.209,434.737L265.264,434.737C261.672,434.737 258.76,436.787 258.76,439.316C258.76,469.67 258.76,641.599 258.76,671.954C258.76,674.482 261.672,676.532 265.264,676.532C316.062,676.532 647.209,676.532 647.209,676.532L647.209,434.737Z" style="fill:rgb(60,77,211);"/>
                </g>
                <g transform="matrix(0.471178,0,0,0.986847,1314.71,74.1884)">
                    <path d="M647.209,434.737L282.105,434.737C269.212,434.737 258.76,439.728 258.76,445.884C258.76,486.31 258.76,624.959 258.76,665.386C258.76,671.542 269.212,676.532 282.105,676.532L647.209,676.532L647.209,434.737Z" style="fill:rgb(73,93,237);"/>
                </g>
                <g transform="matrix(0.471178,0,0,0.707016,1314.71,-13.1914)">
                    <path d="M647.209,434.737L282.105,434.737C275.914,434.737 269.976,436.376 265.597,439.294C261.219,442.212 258.76,446.169 258.76,450.295L258.76,660.974C258.76,665.1 261.219,669.057 265.597,671.975C269.976,674.893 275.914,676.532 282.105,676.532L647.209,676.532L647.209,434.737Z" style="fill:rgb(73,93,237);"/>
                </g>
                <g transform="matrix(1,0,0,0.986847,759.15,74.1884)">
                    <path d="M647.209,445.884C647.209,439.728 642.284,434.737 636.209,434.737C580.063,434.737 325.905,434.737 269.76,434.737C263.684,434.737 258.76,439.728 258.76,445.884C258.76,486.31 258.76,624.959 258.76,665.386C258.76,671.542 263.684,676.532 269.76,676.532C325.905,676.532 580.063,676.532 636.209,676.532C642.284,676.532 647.209,671.542 647.209,665.386C647.209,624.959 647.209,486.31 647.209,445.884Z" style="fill:rgb(73,93,237);"/>
                </g>
                <g transform="matrix(1,0,0,0.707016,759.15,-13.1914)">
                    <path d="M647.209,450.295C647.209,441.703 642.284,434.737 636.209,434.737C580.063,434.737 325.905,434.737 269.76,434.737C263.684,434.737 258.76,441.703 258.76,450.295C258.76,493.961 258.76,617.308 258.76,660.974C258.76,669.566 263.684,676.532 269.76,676.532C325.905,676.532 580.063,676.532 636.209,676.532C642.284,676.532 647.209,669.566 647.209,660.974C647.209,617.308 647.209,493.961 647.209,450.295Z" style="fill:rgb(73,93,237);"/>
                </g>
                <g transform="matrix(1,0,0,1,643.964,20.4977)">
                    <path d="M848.596,589.122C857.699,589.122 865.078,581.573 865.078,572.261C865.078,562.95 857.699,555.401 848.596,555.401C839.493,555.401 832.114,562.95 832.114,572.261C832.114,581.573 839.493,589.122 848.596,589.122Z" style="fill:none;fill-rule:nonzero;stroke:white;stroke-width:6px;"/>
                </g>
                <g transform="matrix(1,0,0,1,643.964,20.4977)">
                    <path d="M481.662,257.66C477.864,257.277 474.037,257.277 470.239,257.66L468.246,266.78C464.563,267.308 460.959,268.287 457.514,269.692L451.304,262.795C447.828,264.37 444.494,266.242 441.338,268.389L444.251,277.203C441.458,279.508 438.891,282.074 436.585,284.867L427.616,281.954C425.388,285.018 423.487,288.306 421.943,291.764L428.919,297.972C427.6,301.392 426.625,304.935 426.006,308.548L416.883,310.387C416.5,314.133 416.5,317.908 416.883,321.653L426.006,323.492C426.48,327.136 427.46,330.696 428.919,334.069L421.943,340.276C423.563,343.72 425.46,347.026 427.616,350.163L436.585,347.25C438.811,350.114 441.386,352.689 444.251,354.914L441.338,363.651C444.51,365.795 447.841,367.691 451.304,369.322L457.514,362.348C460.993,363.651 464.586,364.626 468.246,365.261L470.239,374.381C474.037,374.764 477.864,374.764 481.662,374.381L483.578,365.261C487.262,364.732 490.866,363.754 494.311,362.348L500.521,369.322C503.983,367.691 507.315,365.795 510.486,363.651L507.573,354.914C510.348,352.589 512.914,350.025 515.24,347.25L524.209,350.163C526.417,347.046 528.342,343.737 529.958,340.276L522.906,334.069C524.224,330.648 525.2,327.105 525.819,323.492L534.941,321.653C535.325,317.908 535.325,314.133 534.941,310.387L525.819,308.548C525.345,304.904 524.364,301.344 522.906,297.972L529.958,291.764C528.3,288.35 526.377,285.07 524.209,281.954L515.24,284.867C513.034,281.985 510.456,279.408 507.573,277.203L510.486,268.389C507.331,266.242 503.997,264.37 500.521,262.795L494.311,269.692C490.821,268.425 487.231,267.45 483.578,266.78L481.662,257.66ZM475.912,304.333C478.225,304.363 480.478,305.076 482.386,306.383C484.295,307.69 485.774,309.531 486.639,311.676C487.503,313.821 487.713,316.174 487.244,318.439C486.774,320.703 485.645,322.778 483.999,324.402C482.352,326.027 480.262,327.129 477.991,327.569C475.72,328.009 473.37,327.768 471.236,326.876C469.101,325.984 467.279,324.482 465.996,322.557C464.714,320.632 464.03,318.371 464.03,316.058C464.07,312.935 465.34,309.952 467.564,307.758C469.788,305.563 472.787,304.332 475.912,304.333Z" style="fill:rgb(237,126,122);"/>
                </g>
                <g transform="matrix(1,0,0,1,643.964,20.4977)">
                    <path d="M591.671,253.905C589.377,253.675 587.066,253.675 584.771,253.905L583.622,259.346C581.422,259.718 579.265,260.309 577.182,261.109L573.426,256.97C571.376,257.944 569.403,259.071 567.523,260.342L569.209,265.63C567.502,267.005 565.936,268.545 564.533,270.229L559.167,268.466C557.827,270.316 556.671,272.292 555.717,274.367L559.933,278.046C559.159,280.11 558.569,282.239 558.17,284.407L552.727,285.48C552.497,287.748 552.497,290.033 552.727,292.301L558.17,293.374C558.487,295.56 559.079,297.697 559.933,299.735L555.717,303.413C556.729,305.482 557.882,307.479 559.167,309.391L564.533,307.629C565.916,309.331 567.484,310.873 569.209,312.227L567.523,317.438C569.403,318.709 571.376,319.837 573.426,320.81L577.182,316.672C579.281,317.421 581.434,318.01 583.622,318.435L584.771,323.876C587.066,324.106 589.377,324.106 591.671,323.876L592.821,318.435C595.036,318.135 597.202,317.542 599.26,316.672L603.017,320.81C605.067,319.837 607.04,318.709 608.92,317.438L607.157,312.227C608.869,310.832 610.459,309.294 611.91,307.629L617.276,309.391C618.616,307.515 619.772,305.513 620.726,303.413L616.509,299.735C617.293,297.674 617.884,295.544 618.272,293.374L623.715,292.301C623.945,290.033 623.945,287.748 623.715,285.48L618.272,284.407C617.946,282.223 617.354,280.087 616.509,278.046L620.726,274.367C619.713,272.323 618.56,270.351 617.276,268.466L611.91,270.229C610.54,268.489 608.941,266.942 607.157,265.63L608.92,260.342C607.04,259.071 605.067,257.944 603.017,256.97L599.26,261.109C597.161,260.36 595.009,259.771 592.821,259.346L591.671,253.905ZM588.221,281.878C589.613,281.893 590.969,282.319 592.118,283.103C593.268,283.887 594.16,284.993 594.682,286.283C595.204,287.573 595.333,288.988 595.052,290.35C594.772,291.713 594.094,292.962 593.105,293.941C592.115,294.919 590.859,295.583 589.493,295.849C588.127,296.115 586.712,295.971 585.428,295.435C584.144,294.899 583.047,293.996 582.275,292.838C581.504,291.68 581.092,290.32 581.092,288.929C581.19,287.106 581.984,285.39 583.311,284.135C584.637,282.88 586.395,282.182 588.221,282.184L588.221,281.878Z" style="fill:rgb(237,126,122);"/>
                </g>
                <g transform="matrix(1,0,0,1,643.964,20.4977)">
                    <path d="M573.042,340.66C571.589,340.507 570.125,340.507 568.672,340.66L567.905,344.185C566.485,344.362 565.093,344.722 563.766,345.258L561.389,342.576C560.07,343.242 558.79,343.984 557.556,344.798L558.706,348.17C557.6,349.022 556.597,349.999 555.716,351.083L552.267,349.933C551.38,351.12 550.634,352.406 550.043,353.765L552.727,356.141C552.253,357.461 551.894,358.82 551.653,360.203L548.127,360.892C547.973,362.344 547.973,363.809 548.127,365.261L551.653,365.95C551.83,367.346 552.191,368.712 552.727,370.012L550.043,372.388C550.664,373.708 551.408,374.965 552.267,376.144L555.716,375.071C556.576,376.173 557.581,377.153 558.706,377.983L557.556,381.355C558.774,382.173 560.056,382.891 561.389,383.501L563.766,380.818C565.108,381.327 566.493,381.712 567.905,381.968L568.672,385.493C570.125,385.646 571.589,385.646 573.042,385.493L573.808,381.968C575.232,381.764 576.623,381.378 577.948,380.818L580.325,383.501C581.658,382.891 582.94,382.173 584.158,381.355L583.008,377.983C584.096,377.111 585.097,376.135 585.998,375.071L589.447,376.144C590.333,374.983 591.079,373.723 591.67,372.388L588.987,370.012C589.452,368.689 589.811,367.331 590.061,365.95L593.587,365.261C593.741,363.809 593.741,362.344 593.587,360.892L590.061,360.203C589.891,358.806 589.53,357.439 588.987,356.141L591.67,353.765C591.05,352.421 590.306,351.138 589.447,349.933L585.998,351.083C585.158,349.963 584.149,348.98 583.008,348.17L584.158,344.798C582.924,343.984 581.644,343.242 580.325,342.576L577.948,345.258C576.604,344.775 575.218,344.416 573.808,344.185L573.042,340.66ZM570.819,358.593C571.413,358.583 572.003,358.69 572.555,358.908C573.108,359.126 573.612,359.45 574.039,359.863C574.467,360.276 574.808,360.769 575.045,361.314C575.281,361.858 575.408,362.444 575.418,363.038C575.274,364.146 574.732,365.163 573.893,365.9C573.053,366.638 571.974,367.044 570.857,367.044C569.74,367.044 568.661,366.638 567.821,365.9C566.982,365.163 566.44,364.146 566.296,363.038C566.316,361.852 566.801,360.722 567.647,359.89C568.493,359.059 569.632,358.593 570.819,358.593Z" style="fill:rgb(237,126,122);"/>
                </g>
                <g transform="matrix(1,0,0,1,643.964,20.4977)">
                    <path d="M706.892,548.811C706.892,548.038 706.585,547.297 706.039,546.751C705.493,546.205 704.752,545.898 703.979,545.898L487.411,545.898C486.639,545.898 485.898,546.205 485.351,546.751C484.805,547.297 484.498,548.038 484.498,548.811L484.498,692.048C484.498,692.821 484.805,693.561 485.351,694.107C485.898,694.654 486.639,694.96 487.411,694.96L704.056,694.96C704.828,694.96 705.569,694.654 706.115,694.107C706.662,693.561 706.969,692.821 706.969,692.048L706.892,548.811Z" style="fill:rgb(151,181,239);stroke:rgb(168,191,250);stroke-width:0.28px;"/>
                </g>
                <g transform="matrix(1,0,0,1,643.964,20.4977)">
                    <path d="M531.032,603.607C541.998,603.607 550.887,594.755 550.887,583.834C550.887,572.914 541.998,564.062 531.032,564.062C520.066,564.062 511.177,572.914 511.177,583.834C511.177,594.755 520.066,603.607 531.032,603.607Z" style="fill:white;fill-rule:nonzero;"/>
                </g>
                <g transform="matrix(1,0,0,1,643.964,20.4977)">
                    <path d="M585.308,591.115L635.981,671.509C636.332,672.086 636.525,672.746 636.539,673.421C636.553,674.097 636.388,674.764 636.062,675.355C635.735,675.947 635.257,676.441 634.678,676.789C634.098,677.136 633.437,677.324 632.761,677.334L531.415,677.334C530.739,677.324 530.078,677.136 529.498,676.789C528.918,676.441 528.441,675.947 528.114,675.355C527.787,674.764 527.622,674.097 527.637,673.421C527.651,672.746 527.844,672.086 528.195,671.509L578.868,591.115C579.215,590.577 579.692,590.135 580.255,589.829C580.817,589.522 581.447,589.362 582.088,589.362C582.728,589.362 583.358,589.522 583.921,589.829C584.483,590.135 584.96,590.577 585.308,591.115Z" style="fill:white;"/>
                </g>
                <g transform="matrix(1,0,0,1,643.964,20.4977)">
                    <path d="M637.974,621.771L668.638,657.025C669.179,657.658 669.527,658.432 669.642,659.256C669.757,660.081 669.635,660.921 669.288,661.678C668.942,662.435 668.387,663.077 667.687,663.529C666.988,663.981 666.175,664.224 665.342,664.229L604.013,664.229C603.181,664.224 602.367,663.981 601.668,663.529C600.969,663.077 600.413,662.435 600.067,661.678C599.721,660.921 599.598,660.081 599.713,659.256C599.828,658.432 600.176,657.658 600.717,657.025L631.381,621.771C631.791,621.3 632.298,620.922 632.867,620.663C633.435,620.404 634.053,620.27 634.678,620.27C635.303,620.27 635.92,620.404 636.489,620.663C637.057,620.922 637.564,621.3 637.974,621.771Z" style="fill:white;"/>
                </g>
                <g transform="matrix(0.7385,0,0,1,862.274,20.4977)">
                    <path d="M1025.57,458.606L1025.57,339.97L837.216,339.97C836.586,339.97 835.982,340.22 835.536,340.666C835.09,341.111 834.84,341.715 834.84,342.346L834.84,458.606C834.84,459.237 835.09,459.841 835.536,460.286C835.982,460.732 836.586,460.982 837.216,460.982L1023.2,460.982C1023.51,460.982 1023.82,460.921 1024.11,460.801C1024.39,460.682 1024.66,460.507 1024.88,460.286C1025.1,460.066 1025.27,459.804 1025.39,459.516C1025.51,459.228 1025.57,458.918 1025.57,458.606Z" style="fill:rgb(151,181,239);stroke:rgb(168,191,250);stroke-width:0.34px;"/>
                </g>
                <g transform="matrix(0.792843,0,0,1,820.639,20.4977)">
                    <rect x="869.491" y="353.535" width="127.181" height="2.682" style="fill:white;"/>
                </g>
                <g transform="matrix(0.792843,0,0,1,820.639,20.4977)">
                    <rect x="852.855" y="383.654" width="154.935" height="2.682" style="fill:white;"/>
                </g>
                <g transform="matrix(0.792843,0,0,1,820.639,20.4977)">
                    <rect x="882.983" y="361.812" width="95.06" height="2.605" style="fill:white;"/>
                </g>
                <g transform="matrix(1,0,0,1,643.964,20.4977)">
                    <path d="M445.438,740.345C445.418,736.774 443.99,733.355 441.464,730.83C438.938,728.305 435.518,726.877 431.946,726.857L353.521,726.857C349.943,726.857 346.511,728.278 343.981,730.808C341.451,733.337 340.029,736.768 340.029,740.345L340.029,855.304C340.029,858.881 341.451,862.312 343.981,864.841C346.511,867.371 349.943,868.792 353.521,868.792L431.946,868.792C435.518,868.772 438.938,867.344 441.464,864.819C443.99,862.294 445.418,858.875 445.438,855.304L445.438,740.345Z" style="fill:rgb(194,209,251);"/>
                </g>
                <g transform="matrix(1,0,0,1,643.964,20.4977)">
                    <path d="M445.438,777.132C427.291,779.997 408.986,781.763 390.625,782.42C373.913,781.883 340.029,777.132 340.029,777.132L340.029,828.25C357.02,831.109 374.176,832.875 391.392,833.538C409.534,832.245 427.582,829.865 445.438,826.41L445.438,777.132Z" style="fill:rgb(225,119,118);"/>
                </g>
                <g transform="matrix(0.999681,-0.0252595,0.0252595,0.999681,625.401,30.6771)">
                    <path d="M438.646,740.78C438.713,737.436 418.62,734.323 393.767,733.826C368.914,733.329 348.712,735.637 348.646,738.981C348.579,742.324 368.672,745.438 393.525,745.935C418.377,746.432 438.579,744.124 438.646,740.78Z" style="fill:rgb(2,20,97);fill-rule:nonzero;"/>
                </g>
                <g transform="matrix(1,0,0,1,643.964,20.4977)">
                    <path d="M511.584,438.095C547.995,438.095 577.513,408.587 577.513,372.186C577.513,335.785 547.995,306.276 511.584,306.276C475.173,306.276 445.655,335.785 445.655,372.186C445.655,408.587 475.173,438.095 511.584,438.095Z" style="fill:white;fill-opacity:0.29;fill-rule:nonzero;"/>
                </g>
                <g transform="matrix(1,0,0,1,643.964,20.4977)">
                    <path d="M511.584,438.095C547.995,438.095 577.513,408.587 577.513,372.186C577.513,335.785 547.995,306.276 511.584,306.276C475.173,306.276 445.655,335.785 445.655,372.186C445.655,408.587 475.173,438.095 511.584,438.095Z" style="fill:none;fill-rule:nonzero;stroke:rgb(22,22,112);stroke-width:9px;stroke-linecap:butt;stroke-linejoin:miter;stroke-miterlimit:10;"/>
                </g>
                <g transform="matrix(1,0,0,1,643.964,20.4977)">
                    <path d="M832.499,581.491L815.016,594.845C814.141,595.513 813.973,596.763 814.642,597.638L815.805,599.16C816.473,600.035 817.724,600.202 818.599,599.534L836.082,586.18C836.957,585.512 837.124,584.262 836.456,583.387L835.293,581.865C834.624,580.99 833.373,580.823 832.499,581.491Z" style="fill:white;fill-rule:nonzero;"/>
                </g>
                <g transform="matrix(1,0,0,1,643.964,20.4977)">
                    <path d="M454.748,412.943L398.278,456.073C396.058,457.769 395.633,460.944 397.33,463.164L398.307,464.442C400.003,466.662 403.179,467.087 405.399,465.391L461.869,422.26C464.09,420.564 464.514,417.39 462.818,415.17L461.841,413.891C460.144,411.671 456.969,411.247 454.748,412.943Z" style="fill:rgb(28,28,102);fill-rule:nonzero;"/>
                </g>
                <g transform="matrix(1,0,0,1,643.964,20.4977)">
                    <path d="M925.099,422.989L949.861,422.989C951.081,422.989 952.251,423.474 953.113,424.336C953.976,425.198 954.461,426.368 954.461,427.587L954.461,758.821L920.423,758.821L920.423,427.587C920.423,426.977 920.544,426.373 920.78,425.81C921.016,425.247 921.362,424.737 921.797,424.309C922.232,423.881 922.749,423.543 923.315,423.317C923.882,423.09 924.489,422.979 925.099,422.989Z" style="fill:rgb(188,90,85);fill-rule:nonzero;"/>
                </g>
                <g transform="matrix(0.912103,0,0,1.00735,726.996,14.9183)">
                    <path d="M949.248,353.171L974.086,353.171C974.69,353.171 975.289,353.289 975.847,353.521C976.405,353.752 976.912,354.09 977.339,354.517C977.766,354.944 978.105,355.451 978.336,356.009C978.567,356.567 978.686,357.165 978.686,357.769L978.686,758.82L944.648,758.82L944.648,357.769C944.648,356.549 945.133,355.38 945.996,354.517C946.858,353.655 948.028,353.171 949.248,353.171Z" style="fill:rgb(193,101,99);fill-rule:nonzero;"/>
                </g>
                <g transform="matrix(1,0,0,1,758.314,63.0541)">
                    <path d="M861.344,176.767L265.812,176.767C264.063,176.767 262.386,177.461 261.149,178.698C259.912,179.935 259.217,181.612 259.217,183.361C259.217,187.904 259.217,193.917 259.217,198.46C259.217,200.209 259.912,201.886 261.149,203.123C262.386,204.36 264.063,205.054 265.812,205.054C331.231,205.054 861.344,205.054 861.344,205.054L861.344,176.767Z" style="fill:rgb(130,155,231);"/>
                </g>
            </g>
        </g>
    </g>
</svg>
