<svg width="50" height="51" viewBox="0 0 50 51" fill="none" xmlns="http://www.w3.org/2000/svg">
<path fill-rule="evenodd" clip-rule="evenodd" d="M42.3431 50.7866H7.61503C3.51461 50.7866 0.209167 47.3724 0.209167 43.2327V7.81008C0.209167 3.62765 3.55645 0.256104 7.61503 0.256104H42.3431C46.4435 0.256104 49.7489 3.67033 49.7489 7.81008V43.2327C49.7908 47.3724 46.4435 50.7866 42.3431 50.7866Z" fill="white"/>
<path d="M25.115 13.1875C25.115 13.1875 33.4659 15.5572 33.5601 18.4712C34.2194 35.6672 24.9894 37.7487 24.9894 37.7487C24.9894 37.7487 15.7595 35.6672 16.4187 18.4712C16.5443 15.5572 25.115 13.1875 25.115 13.1875ZM25.115 11.5864C24.9894 11.5864 24.8324 11.6184 24.7069 11.6505C24.6127 11.6825 22.4151 12.2909 20.1861 13.2836C18.8047 13.892 17.7059 14.5005 16.8897 15.1729C15.5711 16.1976 14.9118 17.2864 14.849 18.4712C14.692 22.5701 15.0688 26.1886 15.9792 29.2627C16.7327 31.7925 17.8315 33.938 19.2756 35.6672C21.7872 38.6773 24.3929 39.3177 24.6755 39.3818C24.8011 39.4138 24.8952 39.4138 25.0208 39.4138C25.1464 39.4138 25.2406 39.3818 25.3661 39.3818C25.6487 39.3177 28.2544 38.6453 30.766 35.6672C32.2101 33.938 33.3089 31.7925 34.0624 29.2627C34.9728 26.1886 35.3496 22.5701 35.1926 18.4712C35.1298 16.5499 33.4345 14.8847 29.9811 13.3156C27.7835 12.3229 25.6487 11.7145 25.5545 11.6825C25.3975 11.6184 25.272 11.5864 25.115 11.5864Z" fill="#171E54"/>
<path fill-rule="evenodd" clip-rule="evenodd" d="M31.5194 21.033C31.5194 21.033 26.9986 24.2672 26.2766 25.5801C25.6173 26.861 25.0208 32.4969 25.0208 32.4969C25.0208 32.4969 24.5185 26.797 23.765 25.5801C23.0743 24.4593 18.5222 21.033 18.5222 21.033C18.5222 21.033 23.3255 23.3386 25.0208 23.3386C26.6847 23.3386 31.5194 21.033 31.5194 21.033Z" fill="#171E54"/>
</svg>
