<svg width="50" height="51" viewBox="0 0 50 51" fill="none" xmlns="http://www.w3.org/2000/svg">
<g clip-path="url(#clip0)">
<path fill-rule="evenodd" clip-rule="evenodd" d="M42.3431 50.7866H7.61503C3.51461 50.7866 0.209167 47.3724 0.209167 43.2327V7.81008C0.209167 3.62765 3.55645 0.256104 7.61503 0.256104H42.3431C46.4435 0.256104 49.7489 3.67033 49.7489 7.81008V43.2327C49.7908 47.3724 46.4435 50.7866 42.3431 50.7866Z" fill="#2A2B2F"/>
<path d="M25.115 13.1874C25.115 13.1874 33.4659 15.5571 33.5601 18.4711C34.2194 35.6671 24.9894 37.7485 24.9894 37.7485C24.9894 37.7485 15.7595 35.6671 16.4187 18.4711C16.5443 15.5571 25.115 13.1874 25.115 13.1874ZM25.115 11.5863C24.9894 11.5863 24.8324 11.6183 24.7069 11.6503C24.6127 11.6824 22.4151 12.2908 20.1861 13.2835C18.8047 13.8919 17.7059 14.5003 16.8897 15.1728C15.5711 16.1975 14.9118 17.2863 14.849 18.4711C14.692 22.57 15.0688 26.1885 15.9792 29.2626C16.7327 31.7924 17.8315 33.9379 19.2756 35.6671C21.7872 38.6772 24.3929 39.3176 24.6755 39.3817C24.8011 39.4137 24.8952 39.4137 25.0208 39.4137C25.1464 39.4137 25.2406 39.3817 25.3661 39.3817C25.6487 39.3176 28.2544 38.6452 30.766 35.6671C32.2101 33.9379 33.3089 31.7924 34.0624 29.2626C34.9728 26.1885 35.3496 22.57 35.1926 18.4711C35.1298 16.5498 33.4345 14.8846 29.9811 13.3155C27.7835 12.3228 25.6487 11.7144 25.5545 11.6824C25.3975 11.6183 25.272 11.5863 25.115 11.5863Z" fill="#F4F4F4"/>
<path fill-rule="evenodd" clip-rule="evenodd" d="M31.5194 21.0328C31.5194 21.0328 26.9986 24.2671 26.2766 25.58C25.6173 26.8609 25.0208 32.4968 25.0208 32.4968C25.0208 32.4968 24.5185 26.7969 23.765 25.58C23.0743 24.4592 18.5222 21.0328 18.5222 21.0328C18.5222 21.0328 23.3255 23.3384 25.0208 23.3384C26.6847 23.3384 31.5194 21.0328 31.5194 21.0328Z" fill="#F4F4F4"/>
</g>
<defs>
<clipPath id="clip0">
<rect width="50" height="51" fill="white"/>
</clipPath>
</defs>
</svg>
