<?xml version="1.0" encoding="UTF-8"?>
<svg width="53px" height="55px" viewBox="0 0 53 55" version="1.1" xmlns="http://www.w3.org/2000/svg" xmlns:xlink="http://www.w3.org/1999/xlink">
    <title>logo</title>
    <g id="search.yakunin.design" stroke="none" stroke-width="1" fill="none" fill-rule="evenodd">
        <g id="Desktop-HD" transform="translate(-540.000000, -333.000000)">
            <g id="logoD" transform="translate(541.000000, 334.000000)">
                <path d="M43.3755609,53 L7.62410339,53 C3.40284977,53 0,49.4189427 0,45.0769291 L0,7.92315057 C0,3.5363187 3.44592273,0 7.62410339,0 L43.3755609,0 C47.5967939,0 51,3.58108454 51,7.92315057 L51,45.0769291 C51.0427341,49.4189427 47.5967939,53 43.3755609,53 Z" id="Path" stroke="#383838" fill="#1E1E1F"></path>
                <g id="logoItself" transform="translate(17.525220, 15.500000)" fill="#797979">
                    <path d="M8.13520983,1.26580996 C8.13520983,1.26580996 14.7305641,3.13926562 14.8049612,5.44303816 C15.3256616,19.0379841 8.03601375,20.6835134 8.03601375,20.6835134 C8.03601375,20.6835134 0.746444921,19.0379841 1.26706636,5.44303816 C1.36626243,3.13926562 8.13520983,1.26580996 8.13520983,1.26580996 Z M8.13520983,0 C8.03601375,0 7.91201866,0.0252988062 7.81290156,0.0505976124 C7.73850451,0.0759754774 6.00288912,0.556969031 4.24247472,1.34178543 C3.15147585,1.82277899 2.28366816,2.30377254 1.63905163,2.83544277 C0.59765081,3.64555798 0.0769503982,4.50634986 0.0273523611,5.44303816 C-0.0966427317,8.68357806 0.200945491,11.5443196 0.919959073,13.9746653 C1.51505654,15.974694 2.38286423,17.6708999 3.52338215,19.0379841 C5.50698773,21.4177322 7.56491138,21.9240245 7.78810255,21.9747012 C7.88729862,22 7.9616167,22 8.06081277,22 C8.16000885,22 8.2344059,21.9747012 8.333523,21.9747012 C8.55671417,21.9240245 10.6146378,21.3924334 12.5982434,19.0379841 C13.7387613,17.6708999 14.606569,15.974694 15.2016665,13.9746653 C15.9206801,11.5443196 16.2182683,8.68357806 16.0942732,5.44303816 C16.0446751,3.92408202 14.7057651,2.60759539 11.9783469,1.36708424 C10.2427315,0.582267837 8.55671417,0.101274284 8.48231711,0.0759754774 C8.35832202,0.0252988062 8.25920492,0 8.13520983,0 Z" id="Shape" fill-rule="nonzero"></path>
                    <path d="M13.1904209,7.33333333 C13.1904209,7.33333333 9.6219704,9.81604792 9.05206656,10.8238567 C8.53165438,11.8071017 8.06081277,16.1333333 8.06081277,16.1333333 C8.06081277,16.1333333 7.66432704,11.7579739 7.06955898,10.8238567 C6.5243615,9.96350779 2.93120464,7.33333333 2.93120464,7.33333333 C2.93120464,7.33333333 6.72264383,9.10315887 8.06081277,9.10315887 C9.37419642,9.10315887 13.1904209,7.33333333 13.1904209,7.33333333 Z" id="Path"></path>
                </g>
            </g>
        </g>
    </g>
</svg>